<svg xmlns="http://www.w3.org/2000/svg" width="1600" height="900" viewBox="0 0 1600 900">
<defs>
  <linearGradient id="navy" x1="0" y1="0" x2="0" y2="1"><stop offset="0" stop-color="#10243d"/><stop offset="1" stop-color="#071727"/></linearGradient>
  <filter id="sh"><feDropShadow dx="0" dy="2" stdDeviation="5" flood-color="#0b2440" flood-opacity=".08"/></filter>
  <style>.t{font-family:Arial,Helvetica,sans-serif;fill:#10233d}.w{fill:#fff}.muted{fill:#60738d}.xs{font-size:11px}.sm{font-size:12px}.body{font-size:14px}.lab{font-size:14px;font-weight:700}.sec{font-size:18px;font-weight:700}.title{font-size:29px;font-weight:750}.h{font-weight:700}.mono{font-family:Consolas,monospace}</style>
</defs>
<rect width="1600" height="900" fill="#f5f8fc"/>
<rect width="205" height="900" fill="url(#navy)"/>
<circle cx="34" cy="31" r="17" fill="#1469e8"/><path d="M34 19l10 4v8c0 8-5 13-10 16-5-3-10-8-10-16v-8z" fill="none" stroke="#fff" stroke-width="2"/>
<text x="58" y="31" class="t w" font-size="19" font-weight="700">InsuranceClaims</text><text x="58" y="50" class="t w xs" opacity=".75">Gestión de Siniestros</text>
<g class="t w body" opacity=".94"><text x="52" y="101">Tablero</text><text x="52" y="145">Siniestros</text><text x="52" y="189">Tareas</text><text x="52" y="233">Clientes</text><rect x="8" y="254" width="189" height="42" rx="8" fill="#155eaa"/><text x="52" y="280" class="t w lab">Pólizas</text><text x="52" y="325">Renovaciones</text><text x="52" y="369">Cobranzas</text><text x="52" y="413">Automatizaciones</text><text x="52" y="457">Importaciones</text><text x="52" y="501">Recovery</text></g>
<text x="20" y="858" class="t w xs" opacity=".7">v0.5.2</text><text x="20" y="878" class="t w xs" opacity=".7">R3 · InsuranceClaims</text>
<rect x="205" width="1395" height="60" fill="#fff"/><line x1="205" y1="60" x2="1600" y2="60" stroke="#dfe7f1"/>
<rect x="228" y="12" width="600" height="36" rx="8" fill="#f6f9fd" stroke="#dce6f2"/><text x="252" y="35" class="t muted body">Búsqueda global · próximo corte</text>
<circle cx="1088" cy="30" r="16" fill="#142a48"/><text x="1079" y="35" class="t w sm h">OP</text><text x="1114" y="27" class="t lab">Operador</text><text x="1114" y="43" class="t muted xs">Policy 360 R3</text>
<text x="230" y="106" class="t title">Pólizas</text><text x="230" y="132" class="t muted body">Directorio autoritativo para localizar una póliza y abrir su Póliza 360.</text>
<rect x="1000" y="88" width="150" height="38" rx="8" fill="#fff" stroke="#cdd9e7"/><text x="1075" y="112" text-anchor="middle" class="t sm h">← Ver clientes</text>

<g filter="url(#sh)"><rect x="230" y="158" width="920" height="112" rx="12" fill="#fff"/></g>
<text x="250" y="184" class="t xs h">BUSCAR PÓLIZA</text><rect x="250" y="195" width="425" height="40" rx="8" fill="#fff" stroke="#cad7e6"/><text x="268" y="220" class="t muted body">Referencia disponible</text><rect x="684" y="195" width="92" height="40" rx="8" fill="#0f6fed"/><text x="730" y="220" text-anchor="middle" class="t w sm h">Buscar</text>
<text x="804" y="184" class="t xs h">ESTADO</text><rect x="804" y="195" width="150" height="40" rx="8" fill="#fff" stroke="#cad7e6"/><text x="821" y="220" class="t body">Todos ▾</text>
<text x="982" y="184" class="t xs h">RESULTADO R3</text><text x="982" y="220" class="t sec">86 pólizas</text><text x="982" y="245" class="t xs muted">Búsqueda y filtros server-side</text>

<g filter="url(#sh)"><rect x="230" y="292" width="920" height="500" rx="12" fill="#fff"/></g>
<text x="250" y="325" class="t sec">Directorio de pólizas</text><text x="250" y="346" class="t muted sm">25 por página · relación con cliente, assets y Claims desde la proyección R3</text>
<rect x="1020" y="309" width="110" height="34" rx="8" fill="#fff" stroke="#cad7e6"/><text x="1075" y="331" text-anchor="middle" class="t sm h">Actualizar</text>
<rect x="250" y="370" width="880" height="42" rx="6" fill="#f2f6fb"/>
<g class="t sm h"><text x="268" y="396">Póliza</text><text x="470" y="396">Cliente</text><text x="650" y="396">Estado</text><text x="752" y="396">Assets</text><text x="834" y="396">Claims</text><text x="915" y="396">Versión</text><text x="1015" y="396">Acción</text></g>

<g class="t sm">
<line x1="250" y1="466" x2="1130" y2="466" stroke="#e3eaf2"/><text x="268" y="434" class="h">POL-2026-0042</text><text x="268" y="450" class="xs muted">Legacy: LEG-POL-8892</text><text x="470" y="434" class="h">María Rodríguez</text><text x="470" y="450" class="xs muted">CUS-2026-1042</text><rect x="650" y="422" width="62" height="24" rx="12" fill="#dff5e9"/><text x="681" y="439" text-anchor="middle" fill="#16754a" class="xs h">Activa</text><text x="774" y="439" class="h">2</text><text x="855" y="439" class="h">3</text><text x="925" y="439">v4</text><text x="1007" y="439" fill="#1469e8" class="h">Abrir 360 →</text>
<line x1="250" y1="524" x2="1130" y2="524" stroke="#e3eaf2"/><text x="268" y="492" class="h">POL-2026-0038</text><text x="268" y="508" class="xs muted">Legacy: LEG-POL-8875</text><text x="470" y="492" class="h">Jorge Silva</text><text x="470" y="508" class="xs muted">CUS-2026-1038</text><rect x="650" y="480" width="70" height="24" rx="12" fill="#edf1f5"/><text x="685" y="497" text-anchor="middle" fill="#647791" class="xs h">Inactiva</text><text x="774" y="497" class="h">1</text><text x="855" y="497" class="h">0</text><text x="925" y="497">v2</text><text x="1007" y="497" fill="#1469e8" class="h">Abrir 360 →</text>
<line x1="250" y1="582" x2="1130" y2="582" stroke="#e3eaf2"/><text x="268" y="550" class="h">POL-2026-0033</text><text x="268" y="566" class="xs muted">Legacy: LEG-POL-8841</text><text x="470" y="550" class="h">Ana Torres</text><text x="470" y="566" class="xs muted">CUS-2026-1033</text><rect x="650" y="538" width="62" height="24" rx="12" fill="#dff5e9"/><text x="681" y="555" text-anchor="middle" fill="#16754a" class="xs h">Activa</text><text x="774" y="555" class="h">3</text><text x="855" y="555" class="h">4</text><text x="925" y="555">v5</text><text x="1007" y="555" fill="#1469e8" class="h">Abrir 360 →</text>
<line x1="250" y1="640" x2="1130" y2="640" stroke="#e3eaf2"/><text x="268" y="608" class="h">POL-2026-0027</text><text x="268" y="624" class="xs muted">Legacy: LEG-POL-8819</text><text x="470" y="608" class="h">Carlos Méndez</text><text x="470" y="624" class="xs muted">CUS-2026-1027</text><rect x="650" y="596" width="62" height="24" rx="12" fill="#dff5e9"/><text x="681" y="613" text-anchor="middle" fill="#16754a" class="xs h">Activa</text><text x="774" y="613" class="h">1</text><text x="855" y="613" class="h">1</text><text x="925" y="613">v3</text><text x="1007" y="613" fill="#1469e8" class="h">Abrir 360 →</text>
<line x1="250" y1="698" x2="1130" y2="698" stroke="#e3eaf2"/><text x="268" y="666" class="h">POL-2026-0021</text><text x="268" y="682" class="xs muted">Legacy: LEG-POL-8780</text><text x="470" y="666" class="h">Lucía Pereira</text><text x="470" y="682" class="xs muted">CUS-2026-1021</text><rect x="650" y="654" width="62" height="24" rx="12" fill="#dff5e9"/><text x="681" y="671" text-anchor="middle" fill="#16754a" class="xs h">Activa</text><text x="774" y="671" class="h">2</text><text x="855" y="671" class="h">3</text><text x="925" y="671">v2</text><text x="1007" y="671" fill="#1469e8" class="h">Abrir 360 →</text>
</g>

<rect x="250" y="720" width="880" height="52" fill="#fbfcfe"/><rect x="250" y="731" width="104" height="32" rx="8" fill="#fff" stroke="#d3deea"/><text x="302" y="752" text-anchor="middle" class="t sm">← Anterior</text><text x="690" y="751" text-anchor="middle" class="t sm">Página <tspan class="h">1</tspan> de 4</text><rect x="1025" y="731" width="105" height="32" rx="8" fill="#fff" stroke="#d3deea"/><text x="1077" y="752" text-anchor="middle" class="t sm">Siguiente →</text>

<rect x="1180" y="72" width="360" height="800" rx="42" fill="#0d1827"/><rect x="1192" y="88" width="336" height="768" rx="31" fill="#fff"/><rect x="1278" y="88" width="164" height="24" rx="12" fill="#0d1827"/>
<text x="1214" y="126" class="t sm h">9:41</text><circle cx="1235" cy="166" r="13" fill="#1469e8"/><text x="1257" y="164" class="t lab">InsuranceClaims</text><text x="1257" y="181" class="t muted xs">Operador</text>
<text x="1213" y="224" class="t" font-size="23" font-weight="750">Pólizas</text><text x="1213" y="244" class="t muted sm">Buscar y abrir Póliza 360</text>
<rect x="1213" y="260" width="286" height="38" rx="8" fill="#fff" stroke="#cad7e6"/><text x="1230" y="284" class="t muted sm">Referencia disponible</text>
<rect x="1213" y="310" width="137" height="36" rx="8" fill="#fff" stroke="#cad7e6"/><text x="1230" y="333" class="t sm">Todos ▾</text><rect x="1362" y="310" width="137" height="36" rx="8" fill="#0f6fed"/><text x="1430" y="333" text-anchor="middle" class="t w sm h">Buscar</text>
<text x="1213" y="374" class="t sm h">86 pólizas</text><text x="1498" y="374" text-anchor="end" class="t xs muted">25 por página</text>

<g fill="#fff" stroke="#dfe7f1"><rect x="1213" y="392" width="286" height="112" rx="10"/><rect x="1213" y="516" width="286" height="112" rx="10"/><rect x="1213" y="640" width="286" height="112" rx="10"/></g>
<text x="1230" y="419" class="t lab">POL-2026-0042</text><text x="1230" y="438" class="t mono xs muted">Legacy: LEG-POL-8892</text><rect x="1419" y="407" width="62" height="22" rx="11" fill="#dff5e9"/><text x="1450" y="422" text-anchor="middle" fill="#16754a" class="xs h">Activa</text><text x="1230" y="461" class="t xs h">María Rodríguez</text><text x="1230" y="479" class="t xs">Assets <tspan class="h">2</tspan> · Claims <tspan class="h">3</tspan> · v4</text><text x="1230" y="496" fill="#1469e8" class="t xs h">Abrir 360 →</text>
<text x="1230" y="543" class="t lab">POL-2026-0038</text><text x="1230" y="562" class="t mono xs muted">Legacy: LEG-POL-8875</text><rect x="1411" y="531" width="70" height="22" rx="11" fill="#edf1f5"/><text x="1446" y="546" text-anchor="middle" fill="#647791" class="xs h">Inactiva</text><text x="1230" y="585" class="t xs h">Jorge Silva</text><text x="1230" y="603" class="t xs">Assets <tspan class="h">1</tspan> · Claims <tspan class="h">0</tspan> · v2</text><text x="1230" y="620" fill="#1469e8" class="t xs h">Abrir 360 →</text>
<text x="1230" y="667" class="t lab">POL-2026-0033</text><text x="1230" y="686" class="t mono xs muted">Legacy: LEG-POL-8841</text><rect x="1419" y="655" width="62" height="22" rx="11" fill="#dff5e9"/><text x="1450" y="670" text-anchor="middle" fill="#16754a" class="xs h">Activa</text><text x="1230" y="709" class="t xs h">Ana Torres</text><text x="1230" y="727" class="t xs">Assets <tspan class="h">3</tspan> · Claims <tspan class="h">4</tspan> · v5</text><text x="1230" y="744" fill="#1469e8" class="t xs h">Abrir 360 →</text>

<line x1="1192" y1="816" x2="1528" y2="816" stroke="#dfe7f1"/><g class="t tiny"><text x="1220" y="840">Inicio</text><text x="1280" y="840">Clientes</text><text x="1346" y="840" class="h" fill="#1469e8">Pólizas</text><text x="1410" y="840">Siniestros</text><text x="1484" y="840">Más</text></g>
</svg>